<?xml version="1.0" encoding="utf-8"?>
<svg xmlns="http://www.w3.org/2000/svg">
  <defs>
    <symbol id="email" viewBox="0 0 17 17">
      <path d="M16.304,3.059 L1.701,3.059 C1.344,3.059 1.053,3.35 1.053,3.707 L1.053,12.324 C1.053,12.681 1.344,12.972 1.701,12.972 L16.304,12.972 C16.662,12.972 16.953,12.681 16.953,12.324 L16.953,3.707 C16.953,3.35 16.662,3.059 16.304,3.059 L16.304,3.059 Z M14.906,12.046 L12.022,8.643 L9.013,11.188 L5.955,8.57 L3.093,12.047 L1.847,12.047 L5.036,7.694 L1.966,5.094 L1.937,3.813 L9.013,9.344 L16.062,3.724 L16.062,5.094 L13.045,7.694 L16.169,12.032 L14.906,12.046 L14.906,12.046 Z" class="si-glyph-fill"></path>
    </symbol>
    <symbol id="circle" viewBox="0 0 17 17">
      <circle cx="9" cy="9" r="8" class="si-glyph-fill">
      </circle>
    </symbol>
    <symbol id="battery-charging" viewBox="0 0 17 17">
      <g stroke="none" stroke-width="1" fill="none" fill-rule="evenodd">
        <g transform="translate(4.000000, 0.000000)">
          <path d="M7.56,1.003 L5.907,1.003 L5.907,0.031 L3,0.031 L3,1.003 L1.4,1.003 C0.634,1.003 0.016,1.523 0.016,2.166 L0.016,14.799 C0.016,15.442 0.634,15.963 1.4,15.963 L7.559,15.963 C8.321,15.963 8.941,15.442 8.941,14.799 L8.941,2.166 C8.941,1.522 8.321,1.003 7.56,1.003 L7.56,1.003 Z M8.031,14.47 C8.031,14.813 7.707,15.09 7.311,15.09 L1.632,15.09 C1.237,15.09 0.913,14.813 0.913,14.47 L0.913,2.529 C0.913,2.186 1.237,1.908 1.632,1.908 L7.311,1.908 C7.707,1.908 8.031,2.186 8.031,2.529 L8.031,14.47 L8.031,14.47 Z" class="si-glyph-fill"></path>
          <path d="M6,3.006 L2.041,10.689 L4.005,9.42 L3.016,14.004 L6.968,6.183 L4.881,7.5 L6,3.006 Z" class="si-glyph-fill"></path>
        </g>
      </g>
    </symbol>
    <symbol id="battery-75" viewBox="0 0 17 17">
      <g transform="translate(5.000000, 0.000000)" fill="#5ed60e">
        <path d="M2,13.448 C2,13.729 2.272,13.959 2.529,13.959 L6.441,13.959 C6.696,13.959 7,13.73 7,13.448 L7,5.069 L2,8.281 L2,13.448 L2,13.448 Z" class="si-glyph-fill"></path>
        <path d="M7.252,1 L6,1 L6,0.016 L3.023,0.016 L3.023,1 L1.715,1 C0.779,1 0.021,1.575 0.021,2.5 L0.021,14.325 C0.021,15.249 0.78,16 1.715,16 L7.251,16 C8.187,16 8.945,15.249 8.945,14.325 L8.945,2.5 C8.946,1.575 8.188,1 7.252,1 L7.252,1 Z M8,14 C8,14.516 7.516,15 7,15 L2,15 C1.485,15 1,14.516 1,14 L1,3 C1,2.486 1.485,1.949 2,1.949 L7,1.949 C7.516,1.949 8,2.485 8,3 L8,14 L8,14 Z" class="si-glyph-fill"></path>
      </g>
    </symbol>
    <symbol id="battery-50" viewBox="0 0 17 17">
      <g transform="translate(5.000000, 0.000000)" fill="#e2d000">
        <path d="M2.062,13.472 C2.062,13.741 2.274,13.959 2.533,13.959 L6.469,13.959 C6.727,13.959 6.939,13.74 6.939,13.472 L6.939,8.094 L2.063,10.159 L2.063,13.472 L2.062,13.472 Z" class="si-glyph-fill"></path>
        <path d="M7.252,1 L6,1 L6,0 L3.023,0 L3.023,1 L1.715,1 C0.779,1 0.021,1.492 0.021,2.417 L0.021,14.542 C0.021,15.466 0.78,16 1.715,16 L7.251,16 C8.187,16 8.999,15.465 8.999,14.542 L8.999,2.417 C9,1.492 8.188,1 7.252,1 L7.252,1 Z M8,14 C8,14.516 7.516,15 7,15 L2,15 C1.485,15 1,14.516 1,14 L1,3 C1,2.486 1.485,2 2,2 L7,2 C7.516,2 8,2.485 8,3 L8,14 L8,14 Z" class="si-glyph-fill"></path>
      </g>
    </symbol>
    <symbol id="battery-25" viewBox="0 0 17 17">
      <g transform="translate(5.000000, 0.000000)" fill="#C94E5D">
        <path d="M2.062,13.508 C2.062,13.756 2.272,13.959 2.529,13.959 L6.441,13.959 C6.696,13.959 7,13.756 7,13.508 L7,11.101 L2.062,13.157 L2.062,13.508 L2.062,13.508 Z" class="si-glyph-fill"></path>
        <path d="M7.252,1 L6,1 L6,0.016 L3.023,0.016 L3.023,1 L1.715,1 C0.779,1 0.021,1.658 0.021,2.583 L0.021,14.325 C0.021,15.249 0.78,16 1.715,16 L7.251,16 C8.187,16 8.945,15.249 8.945,14.325 L8.945,2.583 C8.946,1.658 8.188,1 7.252,1 L7.252,1 Z M8,14 C8,14.516 7.516,15 7,15 L2,15 C1.485,15 0.936,14.516 0.936,14 L0.936,3 C0.936,2.486 1.486,1.949 2,1.949 L7,1.949 C7.516,1.949 8,2.485 8,3 L8,14 L8,14 Z" class="si-glyph-fill"></path>
      </g>
    </symbol>
    <symbol id="battery-0" viewBox="0 0 17 17">
      <g fill="#C94E5D">
        <path d="M12.306,1 L10.999,1 L10.999,0.016 L8,0.016 L8,1 L6.77,1 C5.834,1 5,1.721 5,2.646 L5,14.325 C5,15.249 5.834,16 6.77,16 L12.306,16 C13.242,16 14,15.249 14,14.325 L14,2.646 C14,1.721 13.241,1 12.306,1 L12.306,1 Z M13,14 C13,14.516 12.516,15 12,15 L7,15 C6.485,15 5.989,14.516 5.989,14 L5.989,3 C5.989,2.486 6.485,1.949 7,1.949 L12,1.949 C12.516,1.949 13,2.485 13,3 L13,14 L13,14 Z" class="si-glyph-fill"></path>
      </g>
    </symbol>
    <symbol id="battery-100" viewBox="0 0 17 17">
      <g transform="translate(4.000000, 0.000000)" fill="#5ed60e">
        <path d="M6.446,3 L2.534,3 C2.279,3 2,3.301 2,3.58 L2,13.482 C2,13.755 2.278,13.979 2.535,13.979 L6.447,13.979 C6.701,13.979 7,13.755 7,13.482 L7,3.58 C7,3.301 6.703,3 6.446,3 L6.446,3 Z" class="si-glyph-fill"></path>
        <path d="M7.306,1.021 L5.999,1.021 L5.999,0.005 L3,0.005 L3,1.021 L1.77,1.021 C0.834,1.021 0.076,1.787 0.076,2.73 L0.076,14.292 C0.076,15.234 0.835,16.001 1.77,16.001 L7.306,16.001 C8.242,16.001 9,15.234 9,14.292 L9,2.73 C9,1.786 8.241,1.021 7.306,1.021 L7.306,1.021 Z M8,14 C8,14.525 7.506,15 7,15 L2,15 C1.494,15 0.989,14.525 0.989,14 L0.989,3 C0.989,2.477 1.494,2 2,2 L7,2 C7.506,2 8,2.476 8,3 L8,14 L8,14 Z" class="si-glyph-fill"></path>
      </g>
    </symbol>
  </defs>
</svg>